<svg xmlns="http://www.w3.org/2000/svg" xmlns:xlink="http://www.w3.org/1999/xlink" version="1.1" width="1061px" height="1082px" viewBox="-0.5 -0.5 1061 1082"><defs><clipPath id="mx-clip-4-489-132-162-0"><rect x="4" y="489" width="132" height="162"/></clipPath><clipPath id="mx-clip-284-586-121-29-0"><rect x="284" y="586" width="121" height="29"/></clipPath><clipPath id="mx-clip-254-586-21-29-0"><rect x="254" y="586" width="21" height="29"/></clipPath><clipPath id="mx-clip-284-621-121-25-0"><rect x="284" y="621" width="121" height="25"/></clipPath><clipPath id="mx-clip-284-647-121-25-0"><rect x="284" y="647" width="121" height="25"/></clipPath><clipPath id="mx-clip-254-647-21-25-0"><rect x="254" y="647" width="21" height="25"/></clipPath><clipPath id="mx-clip-284-673-121-25-0"><rect x="284" y="673" width="121" height="25"/></clipPath><clipPath id="mx-clip-254-673-21-25-0"><rect x="254" y="673" width="21" height="25"/></clipPath><clipPath id="mx-clip-284-699-121-25-0"><rect x="284" y="699" width="121" height="25"/></clipPath><clipPath id="mx-clip-254-699-21-25-0"><rect x="254" y="699" width="21" height="25"/></clipPath><clipPath id="mx-clip-284-725-121-25-0"><rect x="284" y="725" width="121" height="25"/></clipPath><clipPath id="mx-clip-514-528-181-29-0"><rect x="514" y="528" width="181" height="29"/></clipPath><clipPath id="mx-clip-484-528-48-29-0"><rect x="484" y="528" width="48" height="29"/></clipPath><clipPath id="mx-clip-514-563-181-25-0"><rect x="514" y="563" width="181" height="25"/></clipPath><clipPath id="mx-clip-514-589-181-25-0"><rect x="514" y="589" width="181" height="25"/></clipPath><clipPath id="mx-clip-524-327-181-29-0"><rect x="524" y="327" width="181" height="29"/></clipPath><clipPath id="mx-clip-494-327-48-29-0"><rect x="494" y="327" width="48" height="29"/></clipPath><clipPath id="mx-clip-524-362-181-25-0"><rect x="524" y="362" width="181" height="25"/></clipPath><clipPath id="mx-clip-524-388-181-25-0"><rect x="524" y="388" width="181" height="25"/></clipPath><clipPath id="mx-clip-264-296-121-59-0"><rect x="264" y="296" width="121" height="59"/></clipPath><clipPath id="mx-clip-234-296-51-59-0"><rect x="234" y="296" width="51" height="59"/></clipPath><clipPath id="mx-clip-284-876-121-73-0"><rect x="284" y="876" width="121" height="73"/></clipPath><clipPath id="mx-clip-254-876-41-73-0"><rect x="254" y="876" width="41" height="73"/></clipPath><clipPath id="mx-clip-284-955-121-25-0"><rect x="284" y="955" width="121" height="25"/></clipPath><clipPath id="mx-clip-284-981-121-25-0"><rect x="284" y="981" width="121" height="25"/></clipPath><clipPath id="mx-clip-284-1007-121-25-0"><rect x="284" y="1007" width="121" height="25"/></clipPath><clipPath id="mx-clip-254-1007-21-25-0"><rect x="254" y="1007" width="21" height="25"/></clipPath><clipPath id="mx-clip-284-1033-121-25-0"><rect x="284" y="1033" width="121" height="25"/></clipPath><clipPath id="mx-clip-394-26-121-59-0"><rect x="394" y="26" width="121" height="59"/></clipPath><clipPath id="mx-clip-364-26-51-59-0"><rect x="364" y="26" width="51" height="59"/></clipPath><clipPath id="mx-clip-394-91-121-25-0"><rect x="394" y="91" width="121" height="25"/></clipPath><clipPath id="mx-clip-394-117-121-25-0"><rect x="394" y="117" width="121" height="25"/></clipPath><clipPath id="mx-clip-394-143-121-25-0"><rect x="394" y="143" width="121" height="25"/></clipPath><clipPath id="mx-clip-394-169-121-45-0"><rect x="394" y="169" width="121" height="45"/></clipPath><clipPath id="mx-clip-364-169-21-45-0"><rect x="364" y="169" width="21" height="45"/></clipPath><clipPath id="mx-clip-934-86-121-59-0"><rect x="934" y="86" width="121" height="59"/></clipPath><clipPath id="mx-clip-904-86-51-59-0"><rect x="904" y="86" width="51" height="59"/></clipPath><clipPath id="mx-clip-934-151-121-25-0"><rect x="934" y="151" width="121" height="25"/></clipPath><clipPath id="mx-clip-934-177-121-25-0"><rect x="934" y="177" width="121" height="25"/></clipPath><clipPath id="mx-clip-934-203-121-25-0"><rect x="934" y="203" width="121" height="25"/></clipPath><clipPath id="mx-clip-934-229-121-45-0"><rect x="934" y="229" width="121" height="45"/></clipPath><clipPath id="mx-clip-904-229-21-45-0"><rect x="904" y="229" width="21" height="45"/></clipPath><clipPath id="mx-clip-764-729-121-73-0"><rect x="764" y="729" width="121" height="73"/></clipPath><clipPath id="mx-clip-734-729-41-73-0"><rect x="734" y="729" width="41" height="73"/></clipPath><clipPath id="mx-clip-764-808-121-25-0"><rect x="764" y="808" width="121" height="25"/></clipPath><clipPath id="mx-clip-764-834-121-25-0"><rect x="764" y="834" width="121" height="25"/></clipPath><clipPath id="mx-clip-764-860-121-25-0"><rect x="764" y="860" width="121" height="25"/></clipPath><clipPath id="mx-clip-734-860-21-25-0"><rect x="734" y="860" width="21" height="25"/></clipPath><clipPath id="mx-clip-764-886-121-25-0"><rect x="764" y="886" width="121" height="25"/></clipPath></defs><g><path d="M 0 484 L 0 458 L 140 458 L 140 484" fill="#ebebeb" stroke="#000000" stroke-miterlimit="10" pointer-events="none"/><path d="M 0 484 L 0 646 L 140 646 L 140 484" fill="none" stroke="#000000" stroke-miterlimit="10" pointer-events="none"/><path d="M 0 484 L 140 484" fill="none" stroke="#000000" stroke-miterlimit="10" pointer-events="none"/><g fill="#000000" font-family="Helvetica" text-anchor="middle" font-size="12px"><text x="68.79" y="474.5">Personne</text></g><g fill="#000000" font-family="Helvetica" clip-path="url(#mx-clip-4-489-132-162-0)" font-size="12px"><text x="5.5" y="501.5">Nom</text><text x="5.5" y="529.5">CIN</text><text x="5.5" y="543.5">Date Naissance</text></g><path d="M 310 560 L 310 530.14 L 310 452.24" fill="none" stroke="#000000" stroke-width="2" stroke-miterlimit="10" pointer-events="none"/><path d="M 310 446.24 L 314 454.24 L 310 452.24 L 306 454.24 Z" fill="#000000" stroke="#000000" stroke-width="2" stroke-miterlimit="10" pointer-events="none"/><path d="M 330 560 L 330 490.14 L 510 490.14 L 510 458.38" fill="none" stroke="#000000" stroke-width="2" stroke-miterlimit="10" pointer-events="none"/><path d="M 510 452.38 L 514 460.38 L 510 458.38 L 506 460.38 Z" fill="#000000" stroke="#000000" stroke-width="2" stroke-miterlimit="10" pointer-events="none"/><path d="M 370 560.14 L 370 524.43 L 466.05 524.43" fill="none" stroke="#000000" stroke-width="2" stroke-miterlimit="10" pointer-events="none"/><path d="M 472.05 524.43 L 464.05 528.43 L 466.05 524.43 L 464.05 520.43 Z" fill="#000000" stroke="#000000" stroke-width="2" stroke-miterlimit="10" pointer-events="none"/><path d="M 250 586 L 250 560 L 410 560 L 410 586" fill="#e0e0e0" stroke="#000000" stroke-miterlimit="10" pointer-events="none"/><path d="M 250 586 L 250 746 L 410 746 L 410 586" fill="#ffffff" stroke="#000000" stroke-miterlimit="10" pointer-events="none"/><path d="M 250 586 L 410 586" fill="none" stroke="#000000" stroke-miterlimit="10" pointer-events="none"/><g fill="#000000" font-family="Helvetica" text-anchor="middle" font-size="14px"><text x="328.79" y="577.5">état d'arrestation</text></g><path d="M 250 586 M 410 586 M 410 616 L 250 616" fill="none" stroke="#000000" stroke-miterlimit="10" pointer-events="none"/><g fill="#000000" font-family="Helvetica" font-weight="bold" text-decoration="underline" clip-path="url(#mx-clip-284-586-121-29-0)" font-size="12px"><text x="285.5" y="603.79">"arretID"</text></g><path d="M 250 586 M 280 586 L 280 616 M 250 616" fill="none" stroke="#000000" stroke-miterlimit="10" pointer-events="none"/><g fill="#000000" font-family="Helvetica" clip-path="url(#mx-clip-254-586-21-29-0)" font-size="12px"><text x="255.5" y="603.79">PK</text></g><path d="M 250 616 M 410 616 M 410 642 M 250 642" fill="none" stroke="#000000" stroke-miterlimit="10" pointer-events="none"/><g fill="#000000" font-family="Helvetica" clip-path="url(#mx-clip-284-621-121-25-0)" font-size="12px"><text x="285.5" y="633.5">dateArrestation</text></g><path d="M 250 616 M 280 616 L 280 642 M 250 642" fill="none" stroke="#000000" stroke-miterlimit="10" pointer-events="none"/><path d="M 250 642 M 410 642 M 410 668 M 250 668" fill="none" stroke="#000000" stroke-miterlimit="10" pointer-events="none"/><g fill="#000000" font-family="Helvetica" clip-path="url(#mx-clip-284-647-121-25-0)" font-size="12px"><text x="285.5" y="659.5">@CINsuspect</text></g><path d="M 250 642 M 280 642 L 280 668 M 250 668" fill="none" stroke="#000000" stroke-miterlimit="10" pointer-events="none"/><g fill="#000000" font-family="Helvetica" clip-path="url(#mx-clip-254-647-21-25-0)" font-size="12px"><text x="255.5" y="659.5">FK</text></g><path d="M 250 668 M 410 668 M 410 694 M 250 694" fill="none" stroke="#000000" stroke-miterlimit="10" pointer-events="none"/><g fill="#000000" font-family="Helvetica" clip-path="url(#mx-clip-284-673-121-25-0)" font-size="12px"><text x="285.5" y="685.5">@CINvictime</text></g><path d="M 250 668 M 280 668 L 280 694 M 250 694" fill="none" stroke="#000000" stroke-miterlimit="10" pointer-events="none"/><g fill="#000000" font-family="Helvetica" clip-path="url(#mx-clip-254-673-21-25-0)" font-size="12px"><text x="255.5" y="685.5">FK</text></g><path d="M 250 694 M 410 694 M 410 720 M 250 720" fill="none" stroke="#000000" stroke-miterlimit="10" pointer-events="none"/><g fill="#000000" font-family="Helvetica" clip-path="url(#mx-clip-284-699-121-25-0)" font-size="12px"><text x="285.5" y="711.5">@matriculeAgent</text></g><path d="M 250 694 M 280 694 L 280 720 M 250 720" fill="none" stroke="#000000" stroke-miterlimit="10" pointer-events="none"/><g fill="#000000" font-family="Helvetica" clip-path="url(#mx-clip-254-699-21-25-0)" font-size="12px"><text x="255.5" y="711.5">FK</text></g><path d="M 250 720 M 410 720 M 410 746 M 250 746" fill="none" stroke="#000000" stroke-miterlimit="10" pointer-events="none"/><g fill="#000000" font-family="Helvetica" clip-path="url(#mx-clip-284-725-121-25-0)" font-size="12px"><text x="285.5" y="737.5">lieu</text></g><path d="M 250 720 M 280 720 L 280 746 M 250 746" fill="none" stroke="#000000" stroke-miterlimit="10" pointer-events="none"/><path d="M 590 502 L 590 470.14 L 190 470.14 L 190 438.71 L 105.71 438.71 L 105.71 452.35" fill="none" stroke="#000000" stroke-miterlimit="10" pointer-events="none"/><path d="M 105.71 457.6 L 102.21 450.6 L 105.71 452.35 L 109.21 450.6 Z" fill="#000000" stroke="#000000" stroke-miterlimit="10" pointer-events="none"/><path d="M 480 528 L 480 502 L 700 502 L 700 528" fill="#d5e8d4" stroke="#82b366" stroke-miterlimit="10" pointer-events="none"/><path d="M 480 528 L 480 646 L 700 646 L 700 528" fill="#ffffff" stroke="#82b366" stroke-miterlimit="10" pointer-events="none"/><path d="M 480 528 L 700 528" fill="none" stroke="#82b366" stroke-miterlimit="10" pointer-events="none"/><g fill="#000000" font-family="Helvetica" text-anchor="middle" font-size="14px"><text x="588.79" y="519.5">victime</text></g><path d="M 480 528 M 700 528 M 700 558 L 480 558" fill="none" stroke="#000000" stroke-miterlimit="10" pointer-events="none"/><g fill="#000000" font-family="Helvetica" font-weight="bold" text-decoration="underline" clip-path="url(#mx-clip-514-528-181-29-0)" text-anchor="middle" font-size="12px"><text x="603.79" y="545.79">@CIN</text></g><path d="M 480 528 M 537.27 528 L 537.27 558 M 480 558" fill="none" stroke="#000000" stroke-miterlimit="10" pointer-events="none"/><g fill="#000000" font-family="Helvetica" clip-path="url(#mx-clip-484-528-48-29-0)" font-size="12px"><text x="485.5" y="545.79">PK,FK</text></g><path d="M 480 558 M 700 558 M 700 584 M 480 584" fill="none" stroke="#000000" stroke-miterlimit="10" pointer-events="none"/><g fill="#000000" font-family="Helvetica" clip-path="url(#mx-clip-514-563-181-25-0)" font-size="12px"><text x="515.5" y="575.5">dommages</text></g><path d="M 480 558 M 510 558 L 510 584 M 480 584" fill="none" stroke="#000000" stroke-miterlimit="10" pointer-events="none"/><path d="M 480 584 M 700 584 M 700 610 M 480 610" fill="none" stroke="#000000" stroke-miterlimit="10" pointer-events="none"/><g fill="#000000" font-family="Helvetica" clip-path="url(#mx-clip-514-589-181-25-0)" font-size="12px"><text x="515.5" y="601.5">preuves</text></g><path d="M 480 584 M 510 584 L 510 610 M 480 610" fill="none" stroke="#000000" stroke-miterlimit="10" pointer-events="none"/><path d="M 480 610 M 700 610 M 700 636 M 480 636" fill="none" stroke="#000000" stroke-miterlimit="10" pointer-events="none"/><path d="M 480 610 M 510 610 L 510 636 M 480 636" fill="none" stroke="#000000" stroke-miterlimit="10" pointer-events="none"/><path d="M 480 636 M 700 636 M 700 646 M 480 646" fill="none" stroke="#000000" stroke-miterlimit="10" pointer-events="none"/><path d="M 480 636 M 510 636 L 510 646 M 480 646" fill="none" stroke="#000000" stroke-miterlimit="10" pointer-events="none"/><path d="M 600 301 L 600 260.14 L 18.57 260.14 L 18.57 453.77" fill="none" stroke="#000000" stroke-miterlimit="10" pointer-events="none"/><path d="M 18.57 459.02 L 15.07 452.02 L 18.57 453.77 L 22.07 452.02 Z" fill="#000000" stroke="#000000" stroke-miterlimit="10" pointer-events="none"/><path d="M 490 327 L 490 301 L 710 301 L 710 327" fill="#f8cecc" stroke="#b85450" stroke-miterlimit="10" pointer-events="none"/><path d="M 490 327 L 490 445 L 710 445 L 710 327" fill="#ffffff" stroke="#b85450" stroke-miterlimit="10" pointer-events="none"/><path d="M 490 327 L 710 327" fill="none" stroke="#b85450" stroke-miterlimit="10" pointer-events="none"/><g fill="#000000" font-family="Helvetica" text-anchor="middle" font-size="14px"><text x="598.79" y="318.5">suspect</text></g><path d="M 490 327 M 710 327 M 710 357 L 490 357" fill="none" stroke="#000000" stroke-miterlimit="10" pointer-events="none"/><g fill="#000000" font-family="Helvetica" font-weight="bold" text-decoration="underline" clip-path="url(#mx-clip-524-327-181-29-0)" text-anchor="middle" font-size="12px"><text x="613.79" y="344.79">@CIN</text></g><path d="M 490 327 M 547.27 327 L 547.27 357 M 490 357" fill="none" stroke="#000000" stroke-miterlimit="10" pointer-events="none"/><g fill="#000000" font-family="Helvetica" clip-path="url(#mx-clip-494-327-48-29-0)" font-size="12px"><text x="495.5" y="344.79">PK,FK</text></g><path d="M 490 357 M 710 357 M 710 383 M 490 383" fill="none" stroke="#000000" stroke-miterlimit="10" pointer-events="none"/><g fill="#000000" font-family="Helvetica" clip-path="url(#mx-clip-524-362-181-25-0)" font-size="12px"><text x="525.5" y="374.5">motif</text></g><path d="M 490 357 M 520 357 L 520 383 M 490 383" fill="none" stroke="#000000" stroke-miterlimit="10" pointer-events="none"/><path d="M 490 383 M 710 383 M 710 409 M 490 409" fill="none" stroke="#000000" stroke-miterlimit="10" pointer-events="none"/><g fill="#000000" font-family="Helvetica" clip-path="url(#mx-clip-524-388-181-25-0)" font-size="12px"><text x="525.5" y="400.5">"juridiction suposée"</text></g><path d="M 490 383 M 520 383 L 520 409 M 490 409" fill="none" stroke="#000000" stroke-miterlimit="10" pointer-events="none"/><path d="M 490 409 M 710 409 M 710 435 M 490 435" fill="none" stroke="#000000" stroke-miterlimit="10" pointer-events="none"/><path d="M 490 409 M 520 409 L 520 435 M 490 435" fill="none" stroke="#000000" stroke-miterlimit="10" pointer-events="none"/><path d="M 490 435 M 710 435 M 710 445 M 490 445" fill="none" stroke="#000000" stroke-miterlimit="10" pointer-events="none"/><path d="M 490 435 M 520 435 L 520 445 M 490 445" fill="none" stroke="#000000" stroke-miterlimit="10" pointer-events="none"/><path d="M 230 357.29 L 70 357.29 L 70 451.63" fill="none" stroke="#000000" stroke-miterlimit="10" pointer-events="none"/><path d="M 70 456.88 L 66.5 449.88 L 70 451.63 L 73.5 449.88 Z" fill="#000000" stroke="#000000" stroke-miterlimit="10" pointer-events="none"/><path d="M 230 296 L 230 270 L 390 270 L 390 296" fill="#dae8fc" stroke="#6c8ebf" stroke-miterlimit="10" pointer-events="none"/><path d="M 230 296 L 230 444 L 390 444 L 390 296" fill="#ffffff" stroke="#6c8ebf" stroke-miterlimit="10" pointer-events="none"/><path d="M 230 296 L 390 296" fill="none" stroke="#6c8ebf" stroke-miterlimit="10" pointer-events="none"/><g fill="#000000" font-family="Helvetica" text-anchor="middle" font-size="14px"><text x="308.79" y="287.5">agent</text></g><path d="M 230 296 M 390 296 M 390 356 L 230 356" fill="none" stroke="#000000" stroke-miterlimit="10" pointer-events="none"/><g fill="#000000" font-family="Helvetica" font-weight="bold" text-decoration="underline" clip-path="url(#mx-clip-264-296-121-59-0)" text-anchor="middle" font-size="12px"><text x="323.79" y="314.79">matricule</text><text x="323.79" y="342.79">@CIN</text></g><path d="M 230 296 M 290 296 L 290 356 M 230 356" fill="none" stroke="#000000" stroke-miterlimit="10" pointer-events="none"/><g fill="#000000" font-family="Helvetica" clip-path="url(#mx-clip-234-296-51-59-0)" font-size="12px"><text x="235.5" y="314.79">PK</text><text x="235.5" y="328.79">.</text><text x="235.5" y="342.79">PK,FK</text></g><path d="M 230 356 M 390 356 M 390 382 M 230 382" fill="none" stroke="#000000" stroke-miterlimit="10" pointer-events="none"/><path d="M 230 356 M 260 356 L 260 382 M 230 382" fill="none" stroke="#000000" stroke-miterlimit="10" pointer-events="none"/><path d="M 230 382 M 390 382 M 390 408 M 230 408" fill="none" stroke="#000000" stroke-miterlimit="10" pointer-events="none"/><path d="M 230 382 M 260 382 L 260 408 M 230 408" fill="none" stroke="#000000" stroke-miterlimit="10" pointer-events="none"/><path d="M 230 408 M 390 408 M 390 434 M 230 434" fill="none" stroke="#000000" stroke-miterlimit="10" pointer-events="none"/><path d="M 230 408 M 260 408 L 260 434 M 230 434" fill="none" stroke="#000000" stroke-miterlimit="10" pointer-events="none"/><path d="M 230 434 M 390 434 M 390 444 M 230 444" fill="none" stroke="#000000" stroke-miterlimit="10" pointer-events="none"/><path d="M 230 434 M 260 434 L 260 444 M 230 444" fill="none" stroke="#000000" stroke-miterlimit="10" pointer-events="none"/><path d="M 300 840.14 L 300 791.57 L 288.57 791.57 L 288.57 757.94" fill="none" stroke="#000000" stroke-miterlimit="10" pointer-events="none"/><path d="M 288.57 752.69 L 292.07 759.69 L 288.57 757.94 L 285.07 759.69 Z" fill="#000000" stroke="#000000" stroke-miterlimit="10" pointer-events="none"/><path d="M 250 876 L 250 850 L 410 850 L 410 876" fill="#e0e0e0" stroke="#000000" stroke-miterlimit="10" pointer-events="none"/><path d="M 250 876 L 250 1080 L 410 1080 L 410 876" fill="#ffffff" stroke="#000000" stroke-miterlimit="10" pointer-events="none"/><path d="M 250 876 L 410 876" fill="none" stroke="#000000" stroke-miterlimit="10" pointer-events="none"/><g fill="#000000" font-family="Helvetica" text-anchor="middle" font-size="14px"><text x="328.79" y="867.5">garde à vue</text></g><path d="M 250 876 M 410 876 M 410 950 L 250 950" fill="none" stroke="#000000" stroke-miterlimit="10" pointer-events="none"/><g fill="#000000" font-family="Helvetica" font-weight="bold" text-decoration="underline" clip-path="url(#mx-clip-284-876-121-73-0)" text-anchor="middle" font-size="12px"><text x="343.79" y="901.79">"dosssierID"</text><text x="343.79" y="929.79">@arretID</text></g><path d="M 250 876 M 300 876 L 300 950 M 250 950" fill="none" stroke="#000000" stroke-miterlimit="10" pointer-events="none"/><g fill="#000000" font-family="Helvetica" clip-path="url(#mx-clip-254-876-41-73-0)" font-size="12px"><text x="255.5" y="894.79">PK</text><text x="255.5" y="922.79">PKFK</text></g><path d="M 250 950 M 410 950 M 410 976 M 250 976" fill="none" stroke="#000000" stroke-miterlimit="10" pointer-events="none"/><g fill="#000000" font-family="Helvetica" clip-path="url(#mx-clip-284-955-121-25-0)" font-size="12px"><text x="285.5" y="967.5">dateDetention</text></g><path d="M 250 950 M 280 950 L 280 976 M 250 976" fill="none" stroke="#000000" stroke-miterlimit="10" pointer-events="none"/><path d="M 250 976 M 410 976 M 410 1002 M 250 1002" fill="none" stroke="#000000" stroke-miterlimit="10" pointer-events="none"/><g fill="#000000" font-family="Helvetica" clip-path="url(#mx-clip-284-981-121-25-0)" font-size="12px"><text x="285.5" y="993.5">duréeDetention</text></g><path d="M 250 976 M 280 976 L 280 1002 M 250 1002" fill="none" stroke="#000000" stroke-miterlimit="10" pointer-events="none"/><path d="M 250 1002 M 410 1002 M 410 1028 M 250 1028" fill="none" stroke="#000000" stroke-miterlimit="10" pointer-events="none"/><g fill="#000000" font-family="Helvetica" clip-path="url(#mx-clip-284-1007-121-25-0)" font-size="12px"><text x="285.5" y="1019.5">@CINsuspect</text></g><path d="M 250 1002 M 280 1002 L 280 1028 M 250 1028" fill="none" stroke="#000000" stroke-miterlimit="10" pointer-events="none"/><g fill="#000000" font-family="Helvetica" clip-path="url(#mx-clip-254-1007-21-25-0)" font-size="12px"><text x="255.5" y="1019.5">FK</text></g><path d="M 250 1028 M 410 1028 M 410 1054 M 250 1054" fill="none" stroke="#000000" stroke-miterlimit="10" pointer-events="none"/><g fill="#000000" font-family="Helvetica" clip-path="url(#mx-clip-284-1033-121-25-0)" font-size="12px"><text x="285.5" y="1045.5">NuméroCellule (int)</text></g><path d="M 250 1028 M 280 1028 L 280 1054 M 250 1054" fill="none" stroke="#000000" stroke-miterlimit="10" pointer-events="none"/><path d="M 250 1054 M 410 1054 M 410 1080 M 250 1080" fill="none" stroke="#000000" stroke-miterlimit="10" pointer-events="none"/><path d="M 250 1054 M 280 1054 L 280 1080 M 250 1080" fill="none" stroke="#000000" stroke-miterlimit="10" pointer-events="none"/><path d="M 305 796 L 345 796 L 345 775 L 355 805 L 345 835 L 345 814 L 305 814 Z" fill="#adadad" stroke="none" transform="rotate(90,330,805)" pointer-events="none"/><path d="M 440 209.94 L 440 257.14 M 440 263.14 M 440 263.14 L 440 467.14 M 440 473.14 M 440 473.14 L 440 487.14 M 440 493.14 M 440 493.14 L 440 521.43 M 440 527.43 M 440 527.43 L 440 681.57 L 416.37 681.57" fill="none" stroke="#000000" stroke-miterlimit="10" pointer-events="none"/><path d="M 411.12 681.57 L 418.12 678.07 L 416.37 681.57 L 418.12 685.07 Z" fill="#000000" stroke="#000000" stroke-miterlimit="10" pointer-events="none"/><path d="M 360 25.94 L 360 -0.06 L 520 -0.06 L 520 25.94" fill="#dae8fc" stroke="#6c8ebf" stroke-miterlimit="10" pointer-events="none"/><path d="M 360 25.94 L 360 209.94 L 520 209.94 L 520 25.94" fill="#ffffff" stroke="#6c8ebf" stroke-miterlimit="10" pointer-events="none"/><path d="M 360 25.94 L 520 25.94" fill="none" stroke="#6c8ebf" stroke-miterlimit="10" pointer-events="none"/><g fill="#000000" font-family="Helvetica" text-anchor="middle" font-size="14px"><text x="438.79" y="17.44">inventaire</text></g><path d="M 360 25.94 M 520 25.94 M 520 85.94 L 360 85.94" fill="none" stroke="#000000" stroke-miterlimit="10" pointer-events="none"/><g fill="#000000" font-family="Helvetica" font-weight="bold" text-decoration="underline" clip-path="url(#mx-clip-394-26-121-59-0)" text-anchor="middle" font-size="12px"><text x="453.79" y="58.73">idPièces</text></g><path d="M 360 25.94 M 420 25.94 L 420 85.94 M 360 85.94" fill="none" stroke="#000000" stroke-miterlimit="10" pointer-events="none"/><g fill="#000000" font-family="Helvetica" clip-path="url(#mx-clip-364-26-51-59-0)" font-size="12px"><text x="365.5" y="58.73">PK</text></g><path d="M 360 85.94 M 520 85.94 M 520 111.94 M 360 111.94" fill="none" stroke="#000000" stroke-miterlimit="10" pointer-events="none"/><g fill="#000000" font-family="Helvetica" clip-path="url(#mx-clip-394-91-121-25-0)" font-size="12px"><text x="395.5" y="103.44">objet</text></g><path d="M 360 85.94 M 390 85.94 L 390 111.94 M 360 111.94" fill="none" stroke="#000000" stroke-miterlimit="10" pointer-events="none"/><path d="M 360 111.94 M 520 111.94 M 520 137.94 M 360 137.94" fill="none" stroke="#000000" stroke-miterlimit="10" pointer-events="none"/><g fill="#000000" font-family="Helvetica" clip-path="url(#mx-clip-394-117-121-25-0)" font-size="12px"><text x="395.5" y="129.44">type (arme, ..</text></g><path d="M 360 111.94 M 390 111.94 L 390 137.94 M 360 137.94" fill="none" stroke="#000000" stroke-miterlimit="10" pointer-events="none"/><path d="M 360 137.94 M 520 137.94 M 520 163.94 M 360 163.94" fill="none" stroke="#000000" stroke-miterlimit="10" pointer-events="none"/><g fill="#000000" font-family="Helvetica" clip-path="url(#mx-clip-394-143-121-25-0)" font-size="12px"><text x="395.5" y="155.44">état (détruit, )</text></g><path d="M 360 137.94 M 390 137.94 L 390 163.94 M 360 163.94" fill="none" stroke="#000000" stroke-miterlimit="10" pointer-events="none"/><path d="M 360 163.94 M 520 163.94 M 520 209.94 M 360 209.94" fill="none" stroke="#000000" stroke-miterlimit="10" pointer-events="none"/><g fill="#000000" font-family="Helvetica" clip-path="url(#mx-clip-394-169-121-45-0)" font-size="12px"><text x="395.5" y="181.44">@arretID</text></g><path d="M 360 163.94 M 390 163.94 L 390 209.94 M 360 209.94" fill="none" stroke="#000000" stroke-miterlimit="10" pointer-events="none"/><g fill="#000000" font-family="Helvetica" clip-path="url(#mx-clip-364-169-21-45-0)" font-size="12px"><text x="365.5" y="181.44">FK</text></g><path d="M 900 85.94 L 900 59.94 L 1060 59.94 L 1060 85.94" fill="#dae8fc" stroke="#6c8ebf" stroke-miterlimit="10" pointer-events="none"/><path d="M 900 85.94 L 900 269.94 L 1060 269.94 L 1060 85.94" fill="#ffffff" stroke="#6c8ebf" stroke-miterlimit="10" pointer-events="none"/><path d="M 900 85.94 L 1060 85.94" fill="none" stroke="#6c8ebf" stroke-miterlimit="10" pointer-events="none"/><g fill="#000000" font-family="Helvetica" text-anchor="middle" font-size="14px"><text x="978.79" y="77.44">inventaire</text></g><path d="M 900 85.94 M 1060 85.94 M 1060 145.94 L 900 145.94" fill="none" stroke="#000000" stroke-miterlimit="10" pointer-events="none"/><g fill="#000000" font-family="Helvetica" font-weight="bold" text-decoration="underline" clip-path="url(#mx-clip-934-86-121-59-0)" text-anchor="middle" font-size="12px"><text x="993.79" y="118.73">idPièces</text></g><path d="M 900 85.94 M 960 85.94 L 960 145.94 M 900 145.94" fill="none" stroke="#000000" stroke-miterlimit="10" pointer-events="none"/><g fill="#000000" font-family="Helvetica" clip-path="url(#mx-clip-904-86-51-59-0)" font-size="12px"><text x="905.5" y="118.73">PK</text></g><path d="M 900 145.94 M 1060 145.94 M 1060 171.94 M 900 171.94" fill="none" stroke="#000000" stroke-miterlimit="10" pointer-events="none"/><g fill="#000000" font-family="Helvetica" clip-path="url(#mx-clip-934-151-121-25-0)" font-size="12px"><text x="935.5" y="163.44">objet</text></g><path d="M 900 145.94 M 930 145.94 L 930 171.94 M 900 171.94" fill="none" stroke="#000000" stroke-miterlimit="10" pointer-events="none"/><path d="M 900 171.94 M 1060 171.94 M 1060 197.94 M 900 197.94" fill="none" stroke="#000000" stroke-miterlimit="10" pointer-events="none"/><g fill="#000000" font-family="Helvetica" clip-path="url(#mx-clip-934-177-121-25-0)" font-size="12px"><text x="935.5" y="189.44">type (arme, ..</text></g><path d="M 900 171.94 M 930 171.94 L 930 197.94 M 900 197.94" fill="none" stroke="#000000" stroke-miterlimit="10" pointer-events="none"/><path d="M 900 197.94 M 1060 197.94 M 1060 223.94 M 900 223.94" fill="none" stroke="#000000" stroke-miterlimit="10" pointer-events="none"/><g fill="#000000" font-family="Helvetica" clip-path="url(#mx-clip-934-203-121-25-0)" font-size="12px"><text x="935.5" y="215.44">état (détruit, )</text></g><path d="M 900 197.94 M 930 197.94 L 930 223.94 M 900 223.94" fill="none" stroke="#000000" stroke-miterlimit="10" pointer-events="none"/><path d="M 900 223.94 M 1060 223.94 M 1060 269.94 M 900 269.94" fill="none" stroke="#000000" stroke-miterlimit="10" pointer-events="none"/><g fill="#000000" font-family="Helvetica" clip-path="url(#mx-clip-934-229-121-45-0)" font-size="12px"><text x="935.5" y="241.44">@arretID</text></g><path d="M 900 223.94 M 930 223.94 L 930 269.94 M 900 269.94" fill="none" stroke="#000000" stroke-miterlimit="10" pointer-events="none"/><g fill="#000000" font-family="Helvetica" clip-path="url(#mx-clip-904-229-21-45-0)" font-size="12px"><text x="905.5" y="241.44">FK</text></g><path d="M 730 729 L 730 703 L 890 703 L 890 729" fill="#e0e0e0" stroke="#000000" stroke-miterlimit="10" pointer-events="none"/><path d="M 730 729 L 730 933 L 890 933 L 890 729" fill="#ffffff" stroke="#000000" stroke-miterlimit="10" pointer-events="none"/><path d="M 730 729 L 890 729" fill="none" stroke="#000000" stroke-miterlimit="10" pointer-events="none"/><g fill="#000000" font-family="Helvetica" text-anchor="middle" font-size="14px"><text x="808.79" y="720.5">garde à vue</text></g><path d="M 730 729 M 890 729 M 890 803 L 730 803" fill="none" stroke="#000000" stroke-miterlimit="10" pointer-events="none"/><g fill="#000000" font-family="Helvetica" font-weight="bold" text-decoration="underline" clip-path="url(#mx-clip-764-729-121-73-0)" text-anchor="middle" font-size="12px"><text x="823.79" y="754.79">"dosssierID"</text><text x="823.79" y="782.79">@arretID</text></g><path d="M 730 729 M 780 729 L 780 803 M 730 803" fill="none" stroke="#000000" stroke-miterlimit="10" pointer-events="none"/><g fill="#000000" font-family="Helvetica" clip-path="url(#mx-clip-734-729-41-73-0)" font-size="12px"><text x="735.5" y="747.79">PK</text><text x="735.5" y="775.79">PKFK</text></g><path d="M 730 803 M 890 803 M 890 829 M 730 829" fill="none" stroke="#000000" stroke-miterlimit="10" pointer-events="none"/><g fill="#000000" font-family="Helvetica" clip-path="url(#mx-clip-764-808-121-25-0)" font-size="12px"><text x="765.5" y="820.5">dateDetention</text></g><path d="M 730 803 M 760 803 L 760 829 M 730 829" fill="none" stroke="#000000" stroke-miterlimit="10" pointer-events="none"/><path d="M 730 829 M 890 829 M 890 855 M 730 855" fill="none" stroke="#000000" stroke-miterlimit="10" pointer-events="none"/><g fill="#000000" font-family="Helvetica" clip-path="url(#mx-clip-764-834-121-25-0)" font-size="12px"><text x="765.5" y="846.5">duréeDetention</text></g><path d="M 730 829 M 760 829 L 760 855 M 730 855" fill="none" stroke="#000000" stroke-miterlimit="10" pointer-events="none"/><path d="M 730 855 M 890 855 M 890 881 M 730 881" fill="none" stroke="#000000" stroke-miterlimit="10" pointer-events="none"/><g fill="#000000" font-family="Helvetica" clip-path="url(#mx-clip-764-860-121-25-0)" font-size="12px"><text x="765.5" y="872.5">@CINsuspect</text></g><path d="M 730 855 M 760 855 L 760 881 M 730 881" fill="none" stroke="#000000" stroke-miterlimit="10" pointer-events="none"/><g fill="#000000" font-family="Helvetica" clip-path="url(#mx-clip-734-860-21-25-0)" font-size="12px"><text x="735.5" y="872.5">FK</text></g><path d="M 730 881 M 890 881 M 890 907 M 730 907" fill="none" stroke="#000000" stroke-miterlimit="10" pointer-events="none"/><g fill="#000000" font-family="Helvetica" clip-path="url(#mx-clip-764-886-121-25-0)" font-size="12px"><text x="765.5" y="898.5">NuméroCellule (int)</text></g><path d="M 730 881 M 760 881 L 760 907 M 730 907" fill="none" stroke="#000000" stroke-miterlimit="10" pointer-events="none"/><path d="M 730 907 M 890 907 M 890 933 M 730 933" fill="none" stroke="#000000" stroke-miterlimit="10" pointer-events="none"/><path d="M 730 907 M 760 907 L 760 933 M 730 933" fill="none" stroke="#000000" stroke-miterlimit="10" pointer-events="none"/></g></svg>